<svg xmlns="http://www.w3.org/2000/svg" width="100%" height="100%" viewBox="0 0 58 60" >

  <g transform="matrix(1,0,0,1,-2320.44,-42.0417)">
    <g transform="matrix(1,0,0,1,2056.8,0)">
        <g transform="matrix(0.161255,0,0,0.161255,201.861,-67.1619)">
  
   <path d="M543.634,677.209L543.634,801.394C543.634,801.394 471.66,942.207 452.967,978.777C452.032,980.608 452.115,982.794 453.189,984.548C454.262,986.301 456.17,987.371 458.226,987.371L662.134,987.371C664.177,987.371 666.075,986.314 667.152,984.578C668.229,982.841 668.332,980.671 667.424,978.841C649.329,942.37 579.383,801.394 579.383,801.394L579.383,677.209C579.383,677.209 725.125,964.696 735.983,986.112C736.402,986.939 736.621,987.854 736.621,988.782C736.621,995.613 736.621,1025.44 736.621,1038.27C736.621,1039.83 735.999,1041.34 734.891,1042.44C733.784,1043.55 732.281,1044.17 730.715,1044.17L389.006,1044.17C387.44,1044.17 385.938,1043.55 384.831,1042.44C383.723,1041.34 383.101,1039.83 383.101,1038.27L383.101,988.808C383.101,987.864 383.328,986.933 383.762,986.094C394.92,964.536 543.634,677.209 543.634,677.209Z" />
  </g>
</g>
</g>
   <style>
    path {
        fill: rgb(1,71,133);
    }
    @media (prefers-color-scheme: dark) {
        path { fill: white; }
    }
</style>
  </svg>